<svg xmlns="http://www.w3.org/2000/svg" version="1.1" xmlns:xlink="http://www.w3.org/1999/xlink" xmlns:svgjs="http://svgjs.dev/svgjs" width="1442" height="558" preserveAspectRatio="none" viewBox="0 0 1442 558"><g mask="url(&quot;#SvgjsMask1114&quot;)" fill="none"><rect width="1442" height="558" x="0" y="0" fill="url(&quot;#SvgjsLinearGradient1115&quot;)"></rect><path d="M-65.9 534.2L-65.9 534.2" stroke="rgba(125, 157, 221, 1)" stroke-width="1.5"></path><path d="M-65.9 534.2L40.81 537.65" stroke="rgba(125, 157, 221, 1)" stroke-width="1.5"></path><path d="M-65.9 534.2L-60.69 693.37" stroke="rgba(125, 157, 221, 1)" stroke-width="1.5"></path><path d="M-65.9 534.2L96.23 638.45" stroke="rgba(125, 157, 221, 1)" stroke-width="1.5"></path><path d="M-60.69 693.37L-60.69 693.37" stroke="rgba(125, 157, 221, 1)" stroke-width="1.5"></path><path d="M-60.69 693.37L96.23 638.45" stroke="rgba(125, 157, 221, 1)" stroke-width="1.5"></path><path d="M56.52 374.64L56.52 374.64" stroke="rgba(125, 157, 221, 1)" stroke-width="1.5"></path><path d="M56.52 374.64L198.19 369.64" stroke="rgba(125, 157, 221, 1)" stroke-width="1.5"></path><path d="M56.52 374.64L40.81 537.65" stroke="rgba(125, 157, 221, 1)" stroke-width="1.5"></path><path d="M56.52 374.64L-65.9 534.2" stroke="rgba(125, 157, 221, 1)" stroke-width="1.5"></path><path d="M56.52 374.64L96.23 638.45" stroke="rgba(125, 157, 221, 1)" stroke-width="1.5"></path><path d="M40.81 537.65L40.81 537.65" stroke="rgba(125, 157, 221, 1)" stroke-width="1.5"></path><path d="M40.81 537.65L96.23 638.45" stroke="rgba(125, 157, 221, 1)" stroke-width="1.5"></path><path d="M40.81 537.65L-60.69 693.37" stroke="rgba(125, 157, 221, 1)" stroke-width="1.5"></path><path d="M40.81 537.65L198.19 369.64" stroke="rgba(125, 157, 221, 1)" stroke-width="1.5"></path><path d="M96.23 638.45L96.23 638.45" stroke="rgba(125, 157, 221, 1)" stroke-width="1.5"></path><path d="M96.23 638.45L243.4 667.26" stroke="rgba(125, 157, 221, 1)" stroke-width="1.5"></path><path d="M198.19 369.64L198.19 369.64" stroke="rgba(125, 157, 221, 1)" stroke-width="1.5"></path><path d="M198.19 369.64L393.02 344.23" stroke="rgba(125, 157, 221, 1)" stroke-width="1.5"></path><path d="M198.19 369.64L349.35 544.24" stroke="rgba(125, 157, 221, 1)" stroke-width="1.5"></path><path d="M243.4 667.26L243.4 667.26" stroke="rgba(125, 157, 221, 1)" stroke-width="1.5"></path><path d="M243.4 667.26L349.35 544.24" stroke="rgba(125, 157, 221, 1)" stroke-width="1.5"></path><path d="M243.4 667.26L403.58 712.23" stroke="rgba(125, 157, 221, 1)" stroke-width="1.5"></path><path d="M243.4 667.26L40.81 537.65" stroke="rgba(125, 157, 221, 1)" stroke-width="1.5"></path><path d="M393.02 344.23L393.02 344.23" stroke="rgba(125, 157, 221, 1)" stroke-width="1.5"></path><path d="M393.02 344.23L520.86 341.27" stroke="rgba(125, 157, 221, 1)" stroke-width="1.5"></path><path d="M349.35 544.24L349.35 544.24" stroke="rgba(125, 157, 221, 1)" stroke-width="1.5"></path><path d="M349.35 544.24L403.58 712.23" stroke="rgba(125, 157, 221, 1)" stroke-width="1.5"></path><path d="M349.35 544.24L548.22 543.54" stroke="rgba(125, 157, 221, 1)" stroke-width="1.5"></path><path d="M403.58 712.23L403.58 712.23" stroke="rgba(125, 157, 221, 1)" stroke-width="1.5"></path><path d="M403.58 712.23L558.92 689.97" stroke="rgba(125, 157, 221, 1)" stroke-width="1.5"></path><path d="M520.86 341.27L520.86 341.27" stroke="rgba(125, 157, 221, 1)" stroke-width="1.5"></path><path d="M520.86 341.27L548.22 543.54" stroke="rgba(125, 157, 221, 1)" stroke-width="1.5"></path><path d="M520.86 341.27L657.45 540.22" stroke="rgba(125, 157, 221, 1)" stroke-width="1.5"></path><path d="M520.86 341.27L349.35 544.24" stroke="rgba(125, 157, 221, 1)" stroke-width="1.5"></path><path d="M548.22 543.54L548.22 543.54" stroke="rgba(125, 157, 221, 1)" stroke-width="1.5"></path><path d="M548.22 543.54L657.45 540.22" stroke="rgba(125, 157, 221, 1)" stroke-width="1.5"></path><path d="M548.22 543.54L558.92 689.97" stroke="rgba(125, 157, 221, 1)" stroke-width="1.5"></path><path d="M558.92 689.97L558.92 689.97" stroke="rgba(125, 157, 221, 1)" stroke-width="1.5"></path><path d="M558.92 689.97L676.59 641.35" stroke="rgba(125, 157, 221, 1)" stroke-width="1.5"></path><path d="M657.45 540.22L657.45 540.22" stroke="rgba(125, 157, 221, 1)" stroke-width="1.5"></path><path d="M657.45 540.22L676.59 641.35" stroke="rgba(125, 157, 221, 1)" stroke-width="1.5"></path><path d="M657.45 540.22L801.31 546.59" stroke="rgba(125, 157, 221, 1)" stroke-width="1.5"></path><path d="M657.45 540.22L558.92 689.97" stroke="rgba(125, 157, 221, 1)" stroke-width="1.5"></path><path d="M657.45 540.22L791.82 665.92" stroke="rgba(125, 157, 221, 1)" stroke-width="1.5"></path><path d="M657.45 540.22L809.24 364.14" stroke="rgba(125, 157, 221, 1)" stroke-width="1.5"></path><path d="M676.59 641.35L676.59 641.35" stroke="rgba(125, 157, 221, 1)" stroke-width="1.5"></path><path d="M676.59 641.35L791.82 665.92" stroke="rgba(125, 157, 221, 1)" stroke-width="1.5"></path><path d="M824.02 226.62L824.02 226.62" stroke="rgba(125, 157, 221, 1)" stroke-width="1.5"></path><path d="M824.02 226.62L809.24 364.14" stroke="rgba(125, 157, 221, 1)" stroke-width="1.5"></path><path d="M824.02 226.62L983.3 238.09" stroke="rgba(125, 157, 221, 1)" stroke-width="1.5"></path><path d="M824.02 226.62L992.82 89.45" stroke="rgba(125, 157, 221, 1)" stroke-width="1.5"></path><path d="M809.24 364.14L809.24 364.14" stroke="rgba(125, 157, 221, 1)" stroke-width="1.5"></path><path d="M809.24 364.14L801.31 546.59" stroke="rgba(125, 157, 221, 1)" stroke-width="1.5"></path><path d="M809.24 364.14L986.84 409.4" stroke="rgba(125, 157, 221, 1)" stroke-width="1.5"></path><path d="M809.24 364.14L983.3 238.09" stroke="rgba(125, 157, 221, 1)" stroke-width="1.5"></path><path d="M809.24 364.14L978.93 513.1" stroke="rgba(125, 157, 221, 1)" stroke-width="1.5"></path><path d="M801.31 546.59L801.31 546.59" stroke="rgba(125, 157, 221, 1)" stroke-width="1.5"></path><path d="M801.31 546.59L791.82 665.92" stroke="rgba(125, 157, 221, 1)" stroke-width="1.5"></path><path d="M791.82 665.92L791.82 665.92" stroke="rgba(125, 157, 221, 1)" stroke-width="1.5"></path><path d="M791.82 665.92L558.92 689.97" stroke="rgba(125, 157, 221, 1)" stroke-width="1.5"></path><path d="M976.29 -43.37L976.29 -43.37" stroke="rgba(125, 157, 221, 1)" stroke-width="1.5"></path><path d="M976.29 -43.37L992.82 89.45" stroke="rgba(125, 157, 221, 1)" stroke-width="1.5"></path><path d="M976.29 -43.37L1155.1 -54.52" stroke="rgba(125, 157, 221, 1)" stroke-width="1.5"></path><path d="M976.29 -43.37L1126.97 55.53" stroke="rgba(125, 157, 221, 1)" stroke-width="1.5"></path><path d="M992.82 89.45L992.82 89.45" stroke="rgba(125, 157, 221, 1)" stroke-width="1.5"></path><path d="M992.82 89.45L1126.97 55.53" stroke="rgba(125, 157, 221, 1)" stroke-width="1.5"></path><path d="M992.82 89.45L983.3 238.09" stroke="rgba(125, 157, 221, 1)" stroke-width="1.5"></path><path d="M992.82 89.45L1155.1 -54.52" stroke="rgba(125, 157, 221, 1)" stroke-width="1.5"></path><path d="M983.3 238.09L983.3 238.09" stroke="rgba(125, 157, 221, 1)" stroke-width="1.5"></path><path d="M983.3 238.09L986.84 409.4" stroke="rgba(125, 157, 221, 1)" stroke-width="1.5"></path><path d="M983.3 238.09L1156.84 262.27" stroke="rgba(125, 157, 221, 1)" stroke-width="1.5"></path><path d="M986.84 409.4L986.84 409.4" stroke="rgba(125, 157, 221, 1)" stroke-width="1.5"></path><path d="M986.84 409.4L978.93 513.1" stroke="rgba(125, 157, 221, 1)" stroke-width="1.5"></path><path d="M986.84 409.4L1128.13 400.83" stroke="rgba(125, 157, 221, 1)" stroke-width="1.5"></path><path d="M986.84 409.4L1109.93 526.54" stroke="rgba(125, 157, 221, 1)" stroke-width="1.5"></path><path d="M986.84 409.4L1156.84 262.27" stroke="rgba(125, 157, 221, 1)" stroke-width="1.5"></path><path d="M978.93 513.1L978.93 513.1" stroke="rgba(125, 157, 221, 1)" stroke-width="1.5"></path><path d="M978.93 513.1L1109.93 526.54" stroke="rgba(125, 157, 221, 1)" stroke-width="1.5"></path><path d="M978.93 513.1L801.31 546.59" stroke="rgba(125, 157, 221, 1)" stroke-width="1.5"></path><path d="M978.93 513.1L1128.13 400.83" stroke="rgba(125, 157, 221, 1)" stroke-width="1.5"></path><path d="M978.93 513.1L1121.24 692.3" stroke="rgba(125, 157, 221, 1)" stroke-width="1.5"></path><path d="M1155.1 -54.52L1155.1 -54.52" stroke="rgba(125, 157, 221, 1)" stroke-width="1.5"></path><path d="M1155.1 -54.52L1126.97 55.53" stroke="rgba(125, 157, 221, 1)" stroke-width="1.5"></path><path d="M1155.1 -54.52L1274.51 53.17" stroke="rgba(125, 157, 221, 1)" stroke-width="1.5"></path><path d="M1126.97 55.53L1126.97 55.53" stroke="rgba(125, 157, 221, 1)" stroke-width="1.5"></path><path d="M1126.97 55.53L1274.51 53.17" stroke="rgba(125, 157, 221, 1)" stroke-width="1.5"></path><path d="M1126.97 55.53L1156.84 262.27" stroke="rgba(125, 157, 221, 1)" stroke-width="1.5"></path><path d="M1156.84 262.27L1156.84 262.27" stroke="rgba(125, 157, 221, 1)" stroke-width="1.5"></path><path d="M1156.84 262.27L1243.13 249.8" stroke="rgba(125, 157, 221, 1)" stroke-width="1.5"></path><path d="M1156.84 262.27L1128.13 400.83" stroke="rgba(125, 157, 221, 1)" stroke-width="1.5"></path><path d="M1156.84 262.27L1297.59 402.72" stroke="rgba(125, 157, 221, 1)" stroke-width="1.5"></path><path d="M1128.13 400.83L1128.13 400.83" stroke="rgba(125, 157, 221, 1)" stroke-width="1.5"></path><path d="M1128.13 400.83L1109.93 526.54" stroke="rgba(125, 157, 221, 1)" stroke-width="1.5"></path><path d="M1128.13 400.83L1297.59 402.72" stroke="rgba(125, 157, 221, 1)" stroke-width="1.5"></path><path d="M1109.93 526.54L1109.93 526.54" stroke="rgba(125, 157, 221, 1)" stroke-width="1.5"></path><path d="M1109.93 526.54L1121.24 692.3" stroke="rgba(125, 157, 221, 1)" stroke-width="1.5"></path><path d="M1109.93 526.54L1297.59 402.72" stroke="rgba(125, 157, 221, 1)" stroke-width="1.5"></path><path d="M1109.93 526.54L1297.51 691.05" stroke="rgba(125, 157, 221, 1)" stroke-width="1.5"></path><path d="M1121.24 692.3L1121.24 692.3" stroke="rgba(125, 157, 221, 1)" stroke-width="1.5"></path><path d="M1121.24 692.3L1297.51 691.05" stroke="rgba(125, 157, 221, 1)" stroke-width="1.5"></path><path d="M1121.24 692.3L1128.13 400.83" stroke="rgba(125, 157, 221, 1)" stroke-width="1.5"></path><path d="M1121.24 692.3L986.84 409.4" stroke="rgba(125, 157, 221, 1)" stroke-width="1.5"></path><path d="M1121.24 692.3L1443.43 697.18" stroke="rgba(125, 157, 221, 1)" stroke-width="1.5"></path><path d="M1274.51 53.17L1274.51 53.17" stroke="rgba(125, 157, 221, 1)" stroke-width="1.5"></path><path d="M1274.51 53.17L1419.69 89.5" stroke="rgba(125, 157, 221, 1)" stroke-width="1.5"></path><path d="M1243.13 249.8L1243.13 249.8" stroke="rgba(125, 157, 221, 1)" stroke-width="1.5"></path><path d="M1243.13 249.8L1297.59 402.72" stroke="rgba(125, 157, 221, 1)" stroke-width="1.5"></path><path d="M1297.59 402.72L1297.59 402.72" stroke="rgba(125, 157, 221, 1)" stroke-width="1.5"></path><path d="M1297.59 402.72L1427.15 349.42" stroke="rgba(125, 157, 221, 1)" stroke-width="1.5"></path><path d="M1297.59 402.72L1441.85 551.74" stroke="rgba(125, 157, 221, 1)" stroke-width="1.5"></path><path d="M1297.51 691.05L1297.51 691.05" stroke="rgba(125, 157, 221, 1)" stroke-width="1.5"></path><path d="M1297.51 691.05L1443.43 697.18" stroke="rgba(125, 157, 221, 1)" stroke-width="1.5"></path><path d="M1456.59 -66.7L1456.59 -66.7" stroke="rgba(125, 157, 221, 1)" stroke-width="1.5"></path><path d="M1456.59 -66.7L1539.3 -43.76" stroke="rgba(125, 157, 221, 1)" stroke-width="1.5"></path><path d="M1419.69 89.5L1419.69 89.5" stroke="rgba(125, 157, 221, 1)" stroke-width="1.5"></path><path d="M1419.69 89.5L1556.59 86.37" stroke="rgba(125, 157, 221, 1)" stroke-width="1.5"></path><path d="M1419.69 89.5L1438.02 228.46" stroke="rgba(125, 157, 221, 1)" stroke-width="1.5"></path><path d="M1419.69 89.5L1456.59 -66.7" stroke="rgba(125, 157, 221, 1)" stroke-width="1.5"></path><path d="M1419.69 89.5L1539.3 -43.76" stroke="rgba(125, 157, 221, 1)" stroke-width="1.5"></path><path d="M1419.69 89.5L1588.22 256.17" stroke="rgba(125, 157, 221, 1)" stroke-width="1.5"></path><path d="M1438.02 228.46L1438.02 228.46" stroke="rgba(125, 157, 221, 1)" stroke-width="1.5"></path><path d="M1438.02 228.46L1427.15 349.42" stroke="rgba(125, 157, 221, 1)" stroke-width="1.5"></path><path d="M1438.02 228.46L1588.22 256.17" stroke="rgba(125, 157, 221, 1)" stroke-width="1.5"></path><path d="M1427.15 349.42L1427.15 349.42" stroke="rgba(125, 157, 221, 1)" stroke-width="1.5"></path><path d="M1427.15 349.42L1581.16 380.92" stroke="rgba(125, 157, 221, 1)" stroke-width="1.5"></path><path d="M1427.15 349.42L1588.22 256.17" stroke="rgba(125, 157, 221, 1)" stroke-width="1.5"></path><path d="M1427.15 349.42L1441.85 551.74" stroke="rgba(125, 157, 221, 1)" stroke-width="1.5"></path><path d="M1427.15 349.42L1243.13 249.8" stroke="rgba(125, 157, 221, 1)" stroke-width="1.5"></path><path d="M1441.85 551.74L1441.85 551.74" stroke="rgba(125, 157, 221, 1)" stroke-width="1.5"></path><path d="M1441.85 551.74L1443.43 697.18" stroke="rgba(125, 157, 221, 1)" stroke-width="1.5"></path><path d="M1441.85 551.74L1595.11 520.74" stroke="rgba(125, 157, 221, 1)" stroke-width="1.5"></path><path d="M1441.85 551.74L1600.62 671.76" stroke="rgba(125, 157, 221, 1)" stroke-width="1.5"></path><path d="M1443.43 697.18L1443.43 697.18" stroke="rgba(125, 157, 221, 1)" stroke-width="1.5"></path><path d="M1539.3 -43.76L1539.3 -43.76" stroke="rgba(125, 157, 221, 1)" stroke-width="1.5"></path><path d="M1539.3 -43.76L1556.59 86.37" stroke="rgba(125, 157, 221, 1)" stroke-width="1.5"></path><path d="M1539.3 -43.76L1274.51 53.17" stroke="rgba(125, 157, 221, 1)" stroke-width="1.5"></path><path d="M1539.3 -43.76L1438.02 228.46" stroke="rgba(125, 157, 221, 1)" stroke-width="1.5"></path><path d="M1539.3 -43.76L1588.22 256.17" stroke="rgba(125, 157, 221, 1)" stroke-width="1.5"></path><path d="M1556.59 86.37L1556.59 86.37" stroke="rgba(125, 157, 221, 1)" stroke-width="1.5"></path><path d="M1588.22 256.17L1588.22 256.17" stroke="rgba(125, 157, 221, 1)" stroke-width="1.5"></path><path d="M1588.22 256.17L1581.16 380.92" stroke="rgba(125, 157, 221, 1)" stroke-width="1.5"></path><path d="M1588.22 256.17L1556.59 86.37" stroke="rgba(125, 157, 221, 1)" stroke-width="1.5"></path><path d="M1581.16 380.92L1581.16 380.92" stroke="rgba(125, 157, 221, 1)" stroke-width="1.5"></path><path d="M1581.16 380.92L1595.11 520.74" stroke="rgba(125, 157, 221, 1)" stroke-width="1.5"></path><path d="M1581.16 380.92L1438.02 228.46" stroke="rgba(125, 157, 221, 1)" stroke-width="1.5"></path><path d="M1581.16 380.92L1441.85 551.74" stroke="rgba(125, 157, 221, 1)" stroke-width="1.5"></path><path d="M1595.11 520.74L1595.11 520.74" stroke="rgba(125, 157, 221, 1)" stroke-width="1.5"></path><path d="M1595.11 520.74L1600.62 671.76" stroke="rgba(125, 157, 221, 1)" stroke-width="1.5"></path><path d="M1595.11 520.74L1443.43 697.18" stroke="rgba(125, 157, 221, 1)" stroke-width="1.5"></path><path d="M1600.62 671.76L1600.62 671.76" stroke="rgba(125, 157, 221, 1)" stroke-width="1.5"></path><path d="M1600.62 671.76L1443.43 697.18" stroke="rgba(125, 157, 221, 1)" stroke-width="1.5"></path><path d="M1600.62 671.76L1581.16 380.92" stroke="rgba(125, 157, 221, 1)" stroke-width="1.5"></path><path d="M1600.62 671.76L1297.51 691.05" stroke="rgba(125, 157, 221, 1)" stroke-width="1.5"></path><circle r="5" cx="-65.9" cy="534.2" fill="rgba(125, 157, 221, 1)"></circle><circle r="5" cx="-60.69" cy="693.37" fill="rgba(125, 157, 221, 1)"></circle><circle r="5" cx="56.52" cy="374.64" fill="rgba(125, 157, 221, 1)"></circle><circle r="5" cx="40.81" cy="537.65" fill="rgba(125, 157, 221, 1)"></circle><circle r="5" cx="96.23" cy="638.45" fill="rgba(125, 157, 221, 1)"></circle><circle r="5" cx="198.19" cy="369.64" fill="rgba(125, 157, 221, 1)"></circle><circle r="5" cx="243.4" cy="667.26" fill="rgba(125, 157, 221, 1)"></circle><circle r="5" cx="393.02" cy="344.23" fill="rgba(125, 157, 221, 1)"></circle><circle r="5" cx="349.35" cy="544.24" fill="rgba(125, 157, 221, 1)"></circle><circle r="5" cx="403.58" cy="712.23" fill="rgba(125, 157, 221, 1)"></circle><circle r="5" cx="520.86" cy="341.27" fill="rgba(125, 157, 221, 1)"></circle><circle r="5" cx="548.22" cy="543.54" fill="rgba(125, 157, 221, 1)"></circle><circle r="5" cx="558.92" cy="689.97" fill="rgba(125, 157, 221, 1)"></circle><circle r="5" cx="657.45" cy="540.22" fill="rgba(125, 157, 221, 1)"></circle><circle r="5" cx="676.59" cy="641.35" fill="rgba(125, 157, 221, 1)"></circle><circle r="5" cx="824.02" cy="226.62" fill="rgba(125, 157, 221, 1)"></circle><circle r="5" cx="809.24" cy="364.14" fill="rgba(125, 157, 221, 1)"></circle><circle r="5" cx="801.31" cy="546.59" fill="rgba(125, 157, 221, 1)"></circle><circle r="5" cx="791.82" cy="665.92" fill="rgba(125, 157, 221, 1)"></circle><circle r="5" cx="976.29" cy="-43.37" fill="rgba(125, 157, 221, 1)"></circle><circle r="5" cx="992.82" cy="89.45" fill="rgba(125, 157, 221, 1)"></circle><circle r="5" cx="983.3" cy="238.09" fill="rgba(125, 157, 221, 1)"></circle><circle r="5" cx="986.84" cy="409.4" fill="rgba(125, 157, 221, 1)"></circle><circle r="5" cx="978.93" cy="513.1" fill="rgba(125, 157, 221, 1)"></circle><circle r="5" cx="1155.1" cy="-54.52" fill="rgba(125, 157, 221, 1)"></circle><circle r="5" cx="1126.97" cy="55.53" fill="rgba(125, 157, 221, 1)"></circle><circle r="5" cx="1156.84" cy="262.27" fill="rgba(125, 157, 221, 1)"></circle><circle r="5" cx="1128.13" cy="400.83" fill="rgba(125, 157, 221, 1)"></circle><circle r="5" cx="1109.93" cy="526.54" fill="rgba(125, 157, 221, 1)"></circle><circle r="5" cx="1121.24" cy="692.3" fill="rgba(125, 157, 221, 1)"></circle><circle r="5" cx="1274.51" cy="53.17" fill="rgba(125, 157, 221, 1)"></circle><circle r="5" cx="1243.13" cy="249.8" fill="rgba(125, 157, 221, 1)"></circle><circle r="5" cx="1297.59" cy="402.72" fill="rgba(125, 157, 221, 1)"></circle><circle r="5" cx="1297.51" cy="691.05" fill="rgba(125, 157, 221, 1)"></circle><circle r="5" cx="1456.59" cy="-66.7" fill="rgba(125, 157, 221, 1)"></circle><circle r="5" cx="1419.69" cy="89.5" fill="rgba(125, 157, 221, 1)"></circle><circle r="5" cx="1438.02" cy="228.46" fill="rgba(125, 157, 221, 1)"></circle><circle r="5" cx="1427.15" cy="349.42" fill="rgba(125, 157, 221, 1)"></circle><circle r="5" cx="1441.85" cy="551.74" fill="rgba(125, 157, 221, 1)"></circle><circle r="5" cx="1443.43" cy="697.18" fill="rgba(125, 157, 221, 1)"></circle><circle r="5" cx="1539.3" cy="-43.76" fill="rgba(125, 157, 221, 1)"></circle><circle r="5" cx="1556.59" cy="86.37" fill="rgba(125, 157, 221, 1)"></circle><circle r="5" cx="1588.22" cy="256.17" fill="rgba(125, 157, 221, 1)"></circle><circle r="5" cx="1581.16" cy="380.92" fill="rgba(125, 157, 221, 1)"></circle><circle r="5" cx="1595.11" cy="520.74" fill="rgba(125, 157, 221, 1)"></circle><circle r="5" cx="1600.62" cy="671.76" fill="rgba(125, 157, 221, 1)"></circle><path d="M232.37 646.85L232.37 646.85" stroke="hsl(187.20000000000005, 62.9%, 69.6%)" stroke-width="1.5"></path><path d="M232.37 646.85L241.05 555.43" stroke="hsl(187.20000000000005, 62.9%, 69.6%)" stroke-width="1.5"></path><path d="M232.37 646.85L89.31 675.54" stroke="hsl(187.20000000000005, 62.9%, 69.6%)" stroke-width="1.5"></path><path d="M232.37 646.85L381.99 657.52" stroke="hsl(187.20000000000005, 62.9%, 69.6%)" stroke-width="1.5"></path><path d="M232.37 646.85L339.7 511.61" stroke="hsl(187.20000000000005, 62.9%, 69.6%)" stroke-width="1.5"></path><path d="M492.52 675.72L492.52 675.72" stroke="hsl(187.20000000000005, 62.9%, 69.6%)" stroke-width="1.5"></path><path d="M492.52 675.72L381.99 657.52" stroke="hsl(187.20000000000005, 62.9%, 69.6%)" stroke-width="1.5"></path><path d="M492.52 675.72L526.11 497.07" stroke="hsl(187.20000000000005, 62.9%, 69.6%)" stroke-width="1.5"></path><path d="M657.95 386.7L657.95 386.7" stroke="hsl(187.20000000000005, 62.9%, 69.6%)" stroke-width="1.5"></path><path d="M657.95 386.7L682.99 538.16" stroke="hsl(187.20000000000005, 62.9%, 69.6%)" stroke-width="1.5"></path><path d="M657.95 386.7L526.11 497.07" stroke="hsl(187.20000000000005, 62.9%, 69.6%)" stroke-width="1.5"></path><path d="M657.95 386.7L830.78 408.57" stroke="hsl(187.20000000000005, 62.9%, 69.6%)" stroke-width="1.5"></path><path d="M657.95 386.7L812.74 547.32" stroke="hsl(187.20000000000005, 62.9%, 69.6%)" stroke-width="1.5"></path><path d="M830.78 408.57L830.78 408.57" stroke="hsl(187.20000000000005, 62.9%, 69.6%)" stroke-width="1.5"></path><path d="M830.78 408.57L812.74 547.32" stroke="hsl(187.20000000000005, 62.9%, 69.6%)" stroke-width="1.5"></path><path d="M830.78 408.57L984.16 393.04" stroke="hsl(187.20000000000005, 62.9%, 69.6%)" stroke-width="1.5"></path><path d="M830.78 408.57L990.94 512.54" stroke="hsl(187.20000000000005, 62.9%, 69.6%)" stroke-width="1.5"></path><path d="M984.16 393.04L984.16 393.04" stroke="hsl(187.20000000000005, 62.9%, 69.6%)" stroke-width="1.5"></path><path d="M984.16 393.04L990.94 512.54" stroke="hsl(187.20000000000005, 62.9%, 69.6%)" stroke-width="1.5"></path><path d="M984.16 393.04L1103.06 342.7" stroke="hsl(187.20000000000005, 62.9%, 69.6%)" stroke-width="1.5"></path><path d="M984.16 393.04L1122.29 517.1" stroke="hsl(187.20000000000005, 62.9%, 69.6%)" stroke-width="1.5"></path><path d="M947.16 675.26L947.16 675.26" stroke="hsl(187.20000000000005, 62.9%, 69.6%)" stroke-width="1.5"></path><path d="M947.16 675.26L800.81 645.12" stroke="hsl(187.20000000000005, 62.9%, 69.6%)" stroke-width="1.5"></path><path d="M947.16 675.26L1101.58 683.5" stroke="hsl(187.20000000000005, 62.9%, 69.6%)" stroke-width="1.5"></path><path d="M947.16 675.26L990.94 512.54" stroke="hsl(187.20000000000005, 62.9%, 69.6%)" stroke-width="1.5"></path><path d="M1103.06 342.7L1103.06 342.7" stroke="hsl(187.20000000000005, 62.9%, 69.6%)" stroke-width="1.5"></path><path d="M1103.06 342.7L1104.47 250.7" stroke="hsl(187.20000000000005, 62.9%, 69.6%)" stroke-width="1.5"></path><path d="M1101.58 683.5L1101.58 683.5" stroke="hsl(187.20000000000005, 62.9%, 69.6%)" stroke-width="1.5"></path><path d="M1101.58 683.5L1122.29 517.1" stroke="hsl(187.20000000000005, 62.9%, 69.6%)" stroke-width="1.5"></path><path d="M1101.58 683.5L990.94 512.54" stroke="hsl(187.20000000000005, 62.9%, 69.6%)" stroke-width="1.5"></path><path d="M1101.58 683.5L1279.78 488" stroke="hsl(187.20000000000005, 62.9%, 69.6%)" stroke-width="1.5"></path><path d="M1242.64 91.11L1242.64 91.11" stroke="hsl(187.20000000000005, 62.9%, 69.6%)" stroke-width="1.5"></path><path d="M1242.64 91.11L1272.83 242.94" stroke="hsl(187.20000000000005, 62.9%, 69.6%)" stroke-width="1.5"></path><path d="M1242.64 91.11L1413.19 81.02" stroke="hsl(187.20000000000005, 62.9%, 69.6%)" stroke-width="1.5"></path><path d="M-79.39 538.08L-79.39 538.08" stroke="hsl(187.20000000000005, 62.9%, 69.6%)" stroke-width="1.5"></path><path d="M-79.39 538.08L-83.36 686.94" stroke="hsl(187.20000000000005, 62.9%, 69.6%)" stroke-width="1.5"></path><path d="M-79.39 538.08L75.69 526.75" stroke="hsl(187.20000000000005, 62.9%, 69.6%)" stroke-width="1.5"></path><path d="M-79.39 538.08L89.31 675.54" stroke="hsl(187.20000000000005, 62.9%, 69.6%)" stroke-width="1.5"></path><path d="M-79.39 538.08L241.05 555.43" stroke="hsl(187.20000000000005, 62.9%, 69.6%)" stroke-width="1.5"></path><path d="M-79.39 538.08L232.37 646.85" stroke="hsl(187.20000000000005, 62.9%, 69.6%)" stroke-width="1.5"></path><path d="M-83.36 686.94L-83.36 686.94" stroke="hsl(187.20000000000005, 62.9%, 69.6%)" stroke-width="1.5"></path><path d="M-83.36 686.94L89.31 675.54" stroke="hsl(187.20000000000005, 62.9%, 69.6%)" stroke-width="1.5"></path><path d="M75.69 526.75L75.69 526.75" stroke="hsl(187.20000000000005, 62.9%, 69.6%)" stroke-width="1.5"></path><path d="M75.69 526.75L89.31 675.54" stroke="hsl(187.20000000000005, 62.9%, 69.6%)" stroke-width="1.5"></path><path d="M75.69 526.75L241.05 555.43" stroke="hsl(187.20000000000005, 62.9%, 69.6%)" stroke-width="1.5"></path><path d="M75.69 526.75L232.37 646.85" stroke="hsl(187.20000000000005, 62.9%, 69.6%)" stroke-width="1.5"></path><path d="M75.69 526.75L-83.36 686.94" stroke="hsl(187.20000000000005, 62.9%, 69.6%)" stroke-width="1.5"></path><path d="M75.69 526.75L339.7 511.61" stroke="hsl(187.20000000000005, 62.9%, 69.6%)" stroke-width="1.5"></path><path d="M89.31 675.54L89.31 675.54" stroke="hsl(187.20000000000005, 62.9%, 69.6%)" stroke-width="1.5"></path><path d="M241.05 555.43L241.05 555.43" stroke="hsl(187.20000000000005, 62.9%, 69.6%)" stroke-width="1.5"></path><path d="M241.05 555.43L339.7 511.61" stroke="hsl(187.20000000000005, 62.9%, 69.6%)" stroke-width="1.5"></path><path d="M339.7 511.61L339.7 511.61" stroke="hsl(187.20000000000005, 62.9%, 69.6%)" stroke-width="1.5"></path><path d="M339.7 511.61L381.99 657.52" stroke="hsl(187.20000000000005, 62.9%, 69.6%)" stroke-width="1.5"></path><path d="M339.7 511.61L526.11 497.07" stroke="hsl(187.20000000000005, 62.9%, 69.6%)" stroke-width="1.5"></path><path d="M339.7 511.61L492.52 675.72" stroke="hsl(187.20000000000005, 62.9%, 69.6%)" stroke-width="1.5"></path><path d="M381.99 657.52L381.99 657.52" stroke="hsl(187.20000000000005, 62.9%, 69.6%)" stroke-width="1.5"></path><path d="M381.99 657.52L241.05 555.43" stroke="hsl(187.20000000000005, 62.9%, 69.6%)" stroke-width="1.5"></path><path d="M381.99 657.52L526.11 497.07" stroke="hsl(187.20000000000005, 62.9%, 69.6%)" stroke-width="1.5"></path><path d="M526.11 497.07L526.11 497.07" stroke="hsl(187.20000000000005, 62.9%, 69.6%)" stroke-width="1.5"></path><path d="M526.11 497.07L682.99 538.16" stroke="hsl(187.20000000000005, 62.9%, 69.6%)" stroke-width="1.5"></path><path d="M682.99 538.16L682.99 538.16" stroke="hsl(187.20000000000005, 62.9%, 69.6%)" stroke-width="1.5"></path><path d="M682.99 538.16L812.74 547.32" stroke="hsl(187.20000000000005, 62.9%, 69.6%)" stroke-width="1.5"></path><path d="M682.99 538.16L687.57 675.11" stroke="hsl(187.20000000000005, 62.9%, 69.6%)" stroke-width="1.5"></path><path d="M687.57 675.11L687.57 675.11" stroke="hsl(187.20000000000005, 62.9%, 69.6%)" stroke-width="1.5"></path><path d="M687.57 675.11L800.81 645.12" stroke="hsl(187.20000000000005, 62.9%, 69.6%)" stroke-width="1.5"></path><path d="M812.74 547.32L812.74 547.32" stroke="hsl(187.20000000000005, 62.9%, 69.6%)" stroke-width="1.5"></path><path d="M812.74 547.32L800.81 645.12" stroke="hsl(187.20000000000005, 62.9%, 69.6%)" stroke-width="1.5"></path><path d="M812.74 547.32L687.57 675.11" stroke="hsl(187.20000000000005, 62.9%, 69.6%)" stroke-width="1.5"></path><path d="M812.74 547.32L990.94 512.54" stroke="hsl(187.20000000000005, 62.9%, 69.6%)" stroke-width="1.5"></path><path d="M800.81 645.12L800.81 645.12" stroke="hsl(187.20000000000005, 62.9%, 69.6%)" stroke-width="1.5"></path><path d="M800.81 645.12L682.99 538.16" stroke="hsl(187.20000000000005, 62.9%, 69.6%)" stroke-width="1.5"></path><path d="M800.81 645.12L990.94 512.54" stroke="hsl(187.20000000000005, 62.9%, 69.6%)" stroke-width="1.5"></path><path d="M990.94 512.54L990.94 512.54" stroke="hsl(187.20000000000005, 62.9%, 69.6%)" stroke-width="1.5"></path><path d="M990.94 512.54L1122.29 517.1" stroke="hsl(187.20000000000005, 62.9%, 69.6%)" stroke-width="1.5"></path><path d="M990.94 512.54L1103.06 342.7" stroke="hsl(187.20000000000005, 62.9%, 69.6%)" stroke-width="1.5"></path><path d="M1104.47 250.7L1104.47 250.7" stroke="hsl(187.20000000000005, 62.9%, 69.6%)" stroke-width="1.5"></path><path d="M1104.47 250.7L1272.83 242.94" stroke="hsl(187.20000000000005, 62.9%, 69.6%)" stroke-width="1.5"></path><path d="M1104.47 250.7L984.16 393.04" stroke="hsl(187.20000000000005, 62.9%, 69.6%)" stroke-width="1.5"></path><path d="M1104.47 250.7L1242.64 91.11" stroke="hsl(187.20000000000005, 62.9%, 69.6%)" stroke-width="1.5"></path><path d="M1104.47 250.7L1281.21 369.04" stroke="hsl(187.20000000000005, 62.9%, 69.6%)" stroke-width="1.5"></path><path d="M1122.29 517.1L1122.29 517.1" stroke="hsl(187.20000000000005, 62.9%, 69.6%)" stroke-width="1.5"></path><path d="M1122.29 517.1L1279.78 488" stroke="hsl(187.20000000000005, 62.9%, 69.6%)" stroke-width="1.5"></path><path d="M1270.84 -100.73L1270.84 -100.73" stroke="hsl(187.20000000000005, 62.9%, 69.6%)" stroke-width="1.5"></path><path d="M1270.84 -100.73L1429.24 -56.53" stroke="hsl(187.20000000000005, 62.9%, 69.6%)" stroke-width="1.5"></path><path d="M1270.84 -100.73L1242.64 91.11" stroke="hsl(187.20000000000005, 62.9%, 69.6%)" stroke-width="1.5"></path><path d="M1270.84 -100.73L1413.19 81.02" stroke="hsl(187.20000000000005, 62.9%, 69.6%)" stroke-width="1.5"></path><path d="M1270.84 -100.73L1559.18 -88.01" stroke="hsl(187.20000000000005, 62.9%, 69.6%)" stroke-width="1.5"></path><path d="M1270.84 -100.73L1272.83 242.94" stroke="hsl(187.20000000000005, 62.9%, 69.6%)" stroke-width="1.5"></path><path d="M1272.83 242.94L1272.83 242.94" stroke="hsl(187.20000000000005, 62.9%, 69.6%)" stroke-width="1.5"></path><path d="M1272.83 242.94L1390.59 236.99" stroke="hsl(187.20000000000005, 62.9%, 69.6%)" stroke-width="1.5"></path><path d="M1272.83 242.94L1281.21 369.04" stroke="hsl(187.20000000000005, 62.9%, 69.6%)" stroke-width="1.5"></path><path d="M1281.21 369.04L1281.21 369.04" stroke="hsl(187.20000000000005, 62.9%, 69.6%)" stroke-width="1.5"></path><path d="M1281.21 369.04L1279.78 488" stroke="hsl(187.20000000000005, 62.9%, 69.6%)" stroke-width="1.5"></path><path d="M1281.21 369.04L1390.59 236.99" stroke="hsl(187.20000000000005, 62.9%, 69.6%)" stroke-width="1.5"></path><path d="M1281.21 369.04L1409.82 491.6" stroke="hsl(187.20000000000005, 62.9%, 69.6%)" stroke-width="1.5"></path><path d="M1281.21 369.04L1103.06 342.7" stroke="hsl(187.20000000000005, 62.9%, 69.6%)" stroke-width="1.5"></path><path d="M1279.78 488L1279.78 488" stroke="hsl(187.20000000000005, 62.9%, 69.6%)" stroke-width="1.5"></path><path d="M1279.78 488L1409.82 491.6" stroke="hsl(187.20000000000005, 62.9%, 69.6%)" stroke-width="1.5"></path><path d="M1279.78 488L1103.06 342.7" stroke="hsl(187.20000000000005, 62.9%, 69.6%)" stroke-width="1.5"></path><path d="M1279.78 488L1272.83 242.94" stroke="hsl(187.20000000000005, 62.9%, 69.6%)" stroke-width="1.5"></path><path d="M1429.24 -56.53L1429.24 -56.53" stroke="hsl(187.20000000000005, 62.9%, 69.6%)" stroke-width="1.5"></path><path d="M1429.24 -56.53L1559.18 -88.01" stroke="hsl(187.20000000000005, 62.9%, 69.6%)" stroke-width="1.5"></path><path d="M1429.24 -56.53L1413.19 81.02" stroke="hsl(187.20000000000005, 62.9%, 69.6%)" stroke-width="1.5"></path><path d="M1429.24 -56.53L1580.33 55.33" stroke="hsl(187.20000000000005, 62.9%, 69.6%)" stroke-width="1.5"></path><path d="M1429.24 -56.53L1242.64 91.11" stroke="hsl(187.20000000000005, 62.9%, 69.6%)" stroke-width="1.5"></path><path d="M1429.24 -56.53L1390.59 236.99" stroke="hsl(187.20000000000005, 62.9%, 69.6%)" stroke-width="1.5"></path><path d="M1413.19 81.02L1413.19 81.02" stroke="hsl(187.20000000000005, 62.9%, 69.6%)" stroke-width="1.5"></path><path d="M1413.19 81.02L1390.59 236.99" stroke="hsl(187.20000000000005, 62.9%, 69.6%)" stroke-width="1.5"></path><path d="M1413.19 81.02L1580.33 55.33" stroke="hsl(187.20000000000005, 62.9%, 69.6%)" stroke-width="1.5"></path><path d="M1413.19 81.02L1272.83 242.94" stroke="hsl(187.20000000000005, 62.9%, 69.6%)" stroke-width="1.5"></path><path d="M1390.59 236.99L1390.59 236.99" stroke="hsl(187.20000000000005, 62.9%, 69.6%)" stroke-width="1.5"></path><path d="M1390.59 236.99L1242.64 91.11" stroke="hsl(187.20000000000005, 62.9%, 69.6%)" stroke-width="1.5"></path><path d="M1409.82 491.6L1409.82 491.6" stroke="hsl(187.20000000000005, 62.9%, 69.6%)" stroke-width="1.5"></path><path d="M1409.82 491.6L1580.25 552.44" stroke="hsl(187.20000000000005, 62.9%, 69.6%)" stroke-width="1.5"></path><path d="M1409.82 491.6L1583.54 656.78" stroke="hsl(187.20000000000005, 62.9%, 69.6%)" stroke-width="1.5"></path><path d="M1409.82 491.6L1390.59 236.99" stroke="hsl(187.20000000000005, 62.9%, 69.6%)" stroke-width="1.5"></path><path d="M1559.18 -88.01L1559.18 -88.01" stroke="hsl(187.20000000000005, 62.9%, 69.6%)" stroke-width="1.5"></path><path d="M1559.18 -88.01L1580.33 55.33" stroke="hsl(187.20000000000005, 62.9%, 69.6%)" stroke-width="1.5"></path><path d="M1559.18 -88.01L1413.19 81.02" stroke="hsl(187.20000000000005, 62.9%, 69.6%)" stroke-width="1.5"></path><path d="M1559.18 -88.01L1610.15 218.23" stroke="hsl(187.20000000000005, 62.9%, 69.6%)" stroke-width="1.5"></path><path d="M1580.33 55.33L1580.33 55.33" stroke="hsl(187.20000000000005, 62.9%, 69.6%)" stroke-width="1.5"></path><path d="M1580.33 55.33L1610.15 218.23" stroke="hsl(187.20000000000005, 62.9%, 69.6%)" stroke-width="1.5"></path><path d="M1610.15 218.23L1610.15 218.23" stroke="hsl(187.20000000000005, 62.9%, 69.6%)" stroke-width="1.5"></path><path d="M1610.15 218.23L1390.59 236.99" stroke="hsl(187.20000000000005, 62.9%, 69.6%)" stroke-width="1.5"></path><path d="M1580.25 552.44L1580.25 552.44" stroke="hsl(187.20000000000005, 62.9%, 69.6%)" stroke-width="1.5"></path><path d="M1580.25 552.44L1583.54 656.78" stroke="hsl(187.20000000000005, 62.9%, 69.6%)" stroke-width="1.5"></path><path d="M1580.25 552.44L1279.78 488" stroke="hsl(187.20000000000005, 62.9%, 69.6%)" stroke-width="1.5"></path><path d="M1580.25 552.44L1610.15 218.23" stroke="hsl(187.20000000000005, 62.9%, 69.6%)" stroke-width="1.5"></path><path d="M1580.25 552.44L1281.21 369.04" stroke="hsl(187.20000000000005, 62.9%, 69.6%)" stroke-width="1.5"></path><path d="M1583.54 656.78L1583.54 656.78" stroke="hsl(187.20000000000005, 62.9%, 69.6%)" stroke-width="1.5"></path><path d="M1583.54 656.78L1279.78 488" stroke="hsl(187.20000000000005, 62.9%, 69.6%)" stroke-width="1.5"></path><path d="M1583.54 656.78L1281.21 369.04" stroke="hsl(187.20000000000005, 62.9%, 69.6%)" stroke-width="1.5"></path><circle r="25" cx="232.37" cy="646.85" fill="url(&quot;#SvgjsRadialGradient1116&quot;)"></circle><circle r="25" cx="492.52" cy="675.72" fill="url(&quot;#SvgjsRadialGradient1116&quot;)"></circle><circle r="25" cx="657.95" cy="386.7" fill="url(&quot;#SvgjsRadialGradient1116&quot;)"></circle><circle r="25" cx="830.78" cy="408.57" fill="url(&quot;#SvgjsRadialGradient1116&quot;)"></circle><circle r="25" cx="984.16" cy="393.04" fill="url(&quot;#SvgjsRadialGradient1116&quot;)"></circle><circle r="25" cx="947.16" cy="675.26" fill="url(&quot;#SvgjsRadialGradient1116&quot;)"></circle><circle r="25" cx="1103.06" cy="342.7" fill="url(&quot;#SvgjsRadialGradient1116&quot;)"></circle><circle r="25" cx="1101.58" cy="683.5" fill="url(&quot;#SvgjsRadialGradient1116&quot;)"></circle><circle r="25" cx="1242.64" cy="91.11" fill="url(&quot;#SvgjsRadialGradient1116&quot;)"></circle><circle r="5" cx="-79.39" cy="538.08" fill="#9fe0e9"></circle><circle r="5" cx="-83.36" cy="686.94" fill="#9fe0e9"></circle><circle r="5" cx="75.69" cy="526.75" fill="#9fe0e9"></circle><circle r="5" cx="89.31" cy="675.54" fill="#9fe0e9"></circle><circle r="5" cx="241.05" cy="555.43" fill="#9fe0e9"></circle><circle r="5" cx="339.7" cy="511.61" fill="#9fe0e9"></circle><circle r="5" cx="381.99" cy="657.52" fill="#9fe0e9"></circle><circle r="5" cx="526.11" cy="497.07" fill="#9fe0e9"></circle><circle r="5" cx="682.99" cy="538.16" fill="#9fe0e9"></circle><circle r="5" cx="687.57" cy="675.11" fill="#9fe0e9"></circle><circle r="5" cx="812.74" cy="547.32" fill="#9fe0e9"></circle><circle r="5" cx="800.81" cy="645.12" fill="#9fe0e9"></circle><circle r="5" cx="990.94" cy="512.54" fill="#9fe0e9"></circle><circle r="5" cx="1104.47" cy="250.7" fill="#9fe0e9"></circle><circle r="5" cx="1122.29" cy="517.1" fill="#9fe0e9"></circle><circle r="5" cx="1270.84" cy="-100.73" fill="#9fe0e9"></circle><circle r="5" cx="1272.83" cy="242.94" fill="#9fe0e9"></circle><circle r="5" cx="1281.21" cy="369.04" fill="#9fe0e9"></circle><circle r="5" cx="1279.78" cy="488" fill="#9fe0e9"></circle><circle r="5" cx="1429.24" cy="-56.53" fill="#9fe0e9"></circle><circle r="5" cx="1413.19" cy="81.02" fill="#9fe0e9"></circle><circle r="5" cx="1390.59" cy="236.99" fill="#9fe0e9"></circle><circle r="5" cx="1409.82" cy="491.6" fill="#9fe0e9"></circle><circle r="5" cx="1559.18" cy="-88.01" fill="#9fe0e9"></circle><circle r="5" cx="1580.33" cy="55.33" fill="#9fe0e9"></circle><circle r="5" cx="1610.15" cy="218.23" fill="#9fe0e9"></circle><circle r="5" cx="1580.25" cy="552.44" fill="#9fe0e9"></circle><circle r="5" cx="1583.54" cy="656.78" fill="#9fe0e9"></circle></g><defs><mask id="SvgjsMask1114"><rect width="1442" height="558" fill="#ffffff"></rect></mask><linearGradient x1="84.67%" y1="139.61%" x2="15.33%" y2="-39.61%" gradientUnits="userSpaceOnUse" id="SvgjsLinearGradient1115"><stop stop-color="rgba(62, 193, 211, 1)" offset="0"></stop><stop stop-color="rgba(62, 193, 211, 1)" offset="0.16"></stop><stop stop-color="rgba(62, 193, 211, 1)" offset="0.24"></stop><stop stop-color="rgba(62, 193, 211, 1)" offset="0.27"></stop><stop stop-color="rgba(62, 193, 211, 1)" offset="0.36"></stop><stop stop-color="rgba(62, 193, 211, 1)" offset="1"></stop></linearGradient><radialGradient id="SvgjsRadialGradient1116"><stop stop-color="#ffffff" offset="0.1"></stop><stop stop-color="rgba(62, 193, 211, 1)" offset="0.2"></stop><stop stop-color="rgba(62, 193, 211, 0)" offset="1"></stop></radialGradient></defs></svg>